<svg id="visual" viewBox="0 0 576 915" width="576" height="915" xmlns="http://www.w3.org/2000/svg" xmlns:xlink="http://www.w3.org/1999/xlink" version="1.1"><rect x="0" y="0" width="576" height="915" fill="#fff"></rect><defs><linearGradient id="grad1_0" x1="0%" y1="100%" x2="100%" y2="0%"><stop offset="30%" stop-color="#ffffff" stop-opacity="1"></stop><stop offset="70%" stop-color="#ffffff" stop-opacity="1"></stop></linearGradient></defs><defs><linearGradient id="grad2_0" x1="0%" y1="100%" x2="100%" y2="0%"><stop offset="30%" stop-color="#ffffff" stop-opacity="1"></stop><stop offset="70%" stop-color="#ffffff" stop-opacity="1"></stop></linearGradient></defs><g transform="translate(576, 915)"><path d="M-324.4 0C-266.5 -27.9 -208.6 -55.8 -188.8 -109C-169 -162.2 -187.3 -240.8 -162.2 -280.9C-137.1 -321 -68.5 -322.7 0 -324.4L0 0Z" fill="#f7bd8a"></path></g><g transform="translate(0, 0)"><path d="M324.4 0C287.7 40.2 251.1 80.3 228.6 132C206.2 183.7 197.9 246.9 162.2 280.9C126.4 314.9 63.2 319.6 0 324.4L0 0Z" fill="#f7bd8a"></path></g></svg>