<svg id="visual" viewBox="0 0 768 915" width="768" height="915" xmlns="http://www.w3.org/2000/svg" xmlns:xlink="http://www.w3.org/1999/xlink" version="1.1"><rect x="0" y="0" width="768" height="915" fill="#fff"></rect><defs><linearGradient id="grad1_0" x1="0%" y1="100%" x2="100%" y2="0%"><stop offset="30%" stop-color="#ffffff" stop-opacity="1"></stop><stop offset="70%" stop-color="#ffffff" stop-opacity="1"></stop></linearGradient></defs><defs><linearGradient id="grad2_0" x1="0%" y1="100%" x2="100%" y2="0%"><stop offset="30%" stop-color="#ffffff" stop-opacity="1"></stop><stop offset="70%" stop-color="#ffffff" stop-opacity="1"></stop></linearGradient></defs><g transform="translate(768, 915)"><path d="M-358.4 0C-346.2 -60.7 -334.1 -121.4 -305.7 -176.5C-277.4 -231.6 -232.8 -281 -179.2 -310.4C-125.5 -339.7 -62.8 -349.1 0 -358.4L0 0Z" fill="#93ad62"></path></g><g transform="translate(0, 0)"><path d="M358.4 0C349.4 63.3 340.4 126.7 310.4 179.2C280.3 231.7 229.2 273.3 174 301.4C118.8 329.4 59.4 343.9 0 358.4L0 0Z" fill="#93ad62"></path></g></svg>