<svg id="visual" viewBox="0 0 450 900" width="450" height="900" xmlns="http://www.w3.org/2000/svg" xmlns:xlink="http://www.w3.org/1999/xlink" version="1.1"><rect x="0" y="0" width="450" height="900" fill="#fff"></rect><defs><linearGradient id="grad1_0" x1="0%" y1="100%" x2="100%" y2="0%"><stop offset="30%" stop-color="#ffffff" stop-opacity="1"></stop><stop offset="70%" stop-color="#ffffff" stop-opacity="1"></stop></linearGradient></defs><defs><linearGradient id="grad2_0" x1="0%" y1="100%" x2="100%" y2="0%"><stop offset="30%" stop-color="#ffffff" stop-opacity="1"></stop><stop offset="70%" stop-color="#ffffff" stop-opacity="1"></stop></linearGradient></defs><g transform="translate(450, 900)"><path d="M-270 0C-265.4 -51.6 -260.9 -103.1 -233.8 -135C-206.8 -166.9 -157.2 -179.1 -114.5 -198.3C-71.8 -217.5 -35.9 -243.8 0 -270L0 0Z" fill="#ffe8cc"></path></g><g transform="translate(0, 0)"><path d="M270 0C234.5 30.6 199.1 61.1 181 104.5C162.9 147.9 162.3 204.1 135 233.8C107.7 263.5 53.9 266.8 0 270L0 0Z" fill="#ffe8cc"></path></g></svg>