<svg id="visual" viewBox="0 0 992 915" width="992" height="915" xmlns="http://www.w3.org/2000/svg" xmlns:xlink="http://www.w3.org/1999/xlink" version="1.1"><rect x="0" y="0" width="992" height="915" fill="#fff"></rect><defs><linearGradient id="grad1_0" x1="7.8%" y1="100%" x2="100%" y2="0%"><stop offset="28.316939890710383%" stop-color="#ffffff" stop-opacity="1"></stop><stop offset="71.68306010928961%" stop-color="#ffffff" stop-opacity="1"></stop></linearGradient></defs><defs><linearGradient id="grad2_0" x1="0%" y1="100%" x2="92.2%" y2="0%"><stop offset="28.316939890710383%" stop-color="#ffffff" stop-opacity="1"></stop><stop offset="71.68306010928961%" stop-color="#ffffff" stop-opacity="1"></stop></linearGradient></defs><g transform="translate(992, 915)"><path d="M-404.9 0C-329.8 -33.2 -254.7 -66.4 -230.4 -133C-206 -199.6 -232.4 -299.7 -202.4 -350.6C-172.5 -401.5 -86.2 -403.2 0 -404.9L0 0Z" fill="#93ad62"></path></g><g transform="translate(0, 0)"><path d="M404.9 0C398.5 78 392 156.1 350.6 202.4C309.2 248.8 232.8 263.4 168.5 291.9C104.2 320.3 52.1 362.6 0 404.9L0 0Z" fill="#93ad62"></path></g></svg>