<svg id="visual" viewBox="0 0 1200 915" width="1200" height="915" xmlns="http://www.w3.org/2000/svg" xmlns:xlink="http://www.w3.org/1999/xlink" version="1.1"><rect x="0" y="0" width="1200" height="915" fill="#fff"></rect><defs><linearGradient id="grad1_0" x1="23.8%" y1="100%" x2="100%" y2="0%"><stop offset="23.77049180327869%" stop-color="#ffffff" stop-opacity="1"></stop><stop offset="76.22950819672131%" stop-color="#ffffff" stop-opacity="1"></stop></linearGradient></defs><defs><linearGradient id="grad2_0" x1="0%" y1="100%" x2="76.3%" y2="0%"><stop offset="23.77049180327869%" stop-color="#ffffff" stop-opacity="1"></stop><stop offset="76.22950819672131%" stop-color="#ffffff" stop-opacity="1"></stop></linearGradient></defs><g transform="translate(1200, 915)"><path d="M-452.7 0C-447.5 -90.7 -442.4 -181.4 -392.1 -226.4C-341.8 -271.3 -246.4 -270.4 -173.5 -300.5C-100.6 -330.6 -50.3 -391.7 0 -452.7L0 0Z" fill="#93ad62"></path></g><g transform="translate(0, 0)"><path d="M452.7 0C440.6 78.7 428.5 157.4 392.1 226.4C355.6 295.3 294.9 354.5 225.5 390.6C156.1 426.7 78.1 439.7 0 452.7L0 0Z" fill="#93ad62"></path></g></svg>