<svg id="visual" viewBox="0 0 1400 915" width="1400" height="915" xmlns="http://www.w3.org/2000/svg" xmlns:xlink="http://www.w3.org/1999/xlink" version="1.1"><rect x="0" y="0" width="1400" height="915" fill="#fff"></rect><defs><linearGradient id="grad1_0" x1="34.6%" y1="100%" x2="100%" y2="0%"><stop offset="19.398907103825138%" stop-color="#ffffff" stop-opacity="1"></stop><stop offset="80.60109289617486%" stop-color="#ffffff" stop-opacity="1"></stop></linearGradient></defs><defs><linearGradient id="grad2_0" x1="0%" y1="100%" x2="65.4%" y2="0%"><stop offset="19.398907103825138%" stop-color="#ffffff" stop-opacity="1"></stop><stop offset="80.60109289617486%" stop-color="#ffffff" stop-opacity="1"></stop></linearGradient></defs><g transform="translate(1400, 915)"><path d="M-501.7 0C-420.4 -47.9 -339.1 -95.8 -307.4 -177.5C-275.8 -259.2 -293.8 -374.8 -250.9 -434.5C-207.9 -494.2 -104 -498 0 -501.7L0 0Z" fill="#93ad62"></path></g><g transform="translate(0, 0)"><path d="M501.7 0C498 104.1 494.3 208.1 434.5 250.9C374.7 293.6 258.8 275 177 306.6C95.2 338.2 47.6 420 0 501.7L0 0Z" fill="#93ad62"></path></g></svg>