<svg xmlns="http://www.w3.org/2000/svg" viewBox="0 0 30 30">
  <path d="M15 2C13.183 2 11.454813 2.3786875 9.8828125 3.0546875L10.828125 4C11.024125 4.196 11.19475 4.4116719 11.34375 4.6386719C12.48975 4.2326719 13.717 4 15 4C21.065 4 26 8.935 26 15C26 21.065 21.065 26 15 26C8.935 26 4 21.065 4 15C4 13.717 4.2326719 12.490703 4.6386719 11.345703C4.4116719 11.196703 4.196 11.025125 4 10.828125L3.0546875 9.8828125C2.3786875 11.454813 2 13.183 2 15C2 22.168 7.832 28 15 28C22.168 28 28 22.168 28 15C28 7.832 22.168 2 15 2 z M 3.9902344 2.9902344 A 1.0001 1.0001 0 0 0 3.2929688 4.7070312L4.5859375 6L3.7148438 6C3.0818437 6 2.7648906 6.7648906 3.2128906 7.2128906L5.4140625 9.4140625C5.7890625 9.7890625 6.298125 10 6.828125 10L8.5859375 10L14.292969 15.707031 A 1.0001 1.0001 0 1 0 15.707031 14.292969L10 8.5859375L10 6.828125C10 6.298125 9.7890625 5.7890625 9.4140625 5.4140625L7.2128906 3.2128906C6.7648906 2.7648906 6 3.0818437 6 3.7148438L6 4.5859375L4.7070312 3.2929688 A 1.0001 1.0001 0 0 0 3.9902344 2.9902344 z M 15 6C13.936 6 12.918703 6.1941563 11.970703 6.5351562C11.978703 6.6331563 12 6.729125 12 6.828125L12 7.7578125L12.654297 8.4121094C13.389297 8.1501094 14.177 8 15 8C18.859 8 22 11.14 22 15C22 18.86 18.859 22 15 22C11.141 22 8 18.86 8 15C8 14.177 8.1491094 13.389297 8.4121094 12.654297L7.7578125 12L6.828125 12C6.729125 12 6.6331563 11.978703 6.5351562 11.970703C6.1951563 12.918703 6 13.936 6 15C6 19.962 10.037 24 15 24C19.963 24 24 19.962 24 15C24 10.038 19.963 6 15 6 z M 15 10C14.764 10 14.5395 10.038312 14.3125 10.070312L17.121094 12.878906L17.119141 12.880859C17.663141 13.423859 18 14.173 18 15C18 16.654 16.654 18 15 18C14.173 18 13.423859 17.663141 12.880859 17.119141L12.878906 17.121094L10.070312 14.3125C10.038312 14.5395 10 14.764 10 15C10 17.757 12.243 20 15 20C17.757 20 20 17.757 20 15C20 12.243 17.757 10 15 10 z" fill="#E68210" />
</svg>