<svg width="0" height="0" class="hidden">
  <symbol xmlns="http://www.w3.org/2000/svg" viewBox="0 0 24 24" id="menu">
    <path d="M2 5L2 7L22 7L22 5L2 5 z M 2 11L2 13L22 13L22 11L2 11 z M 2 17L2 19L22 19L22 17L2 17 z" fill="#65E610"></path>
  </symbol>
  <symbol xmlns="http://www.w3.org/2000/svg" viewBox="0 0 48 48" id="quote-left">
    <path fill="#f85b0a" d="M7 34.2c0 1 .8 1.8 1.8 1.8h10.3c1 0 1.8-.8 1.8-1.8V23.8c0-1-.8-1.8-1.8-1.8H13c0-2.8 2.2-5 5-5v-6c-6.1 0-11 4.9-11 11 0 .4 0 .9.1 1.3C7 23.5 7 23.7 7 23.8V34.2zM28.8 36h10.3c1 0 1.8-.8 1.8-1.8V23.8c0-1-.8-1.8-1.8-1.8H33c0-2.8 2.2-5 5-5v-6c-6.1 0-11 4.9-11 11 0 .4 0 .9.1 1.3C27 23.5 27 23.7 27 23.8v10.3C27 35.2 27.8 36 28.8 36z"></path>
  </symbol>
  <symbol xmlns="http://www.w3.org/2000/svg" viewBox="0 0 48 48" id="quote-right">
    <path fill="#f85b0a" d="M41 12.8c0-1-.8-1.8-1.8-1.8H28.8c-1 0-1.8.8-1.8 1.8v10.3c0 1 .8 1.8 1.8 1.8H35c0 2.8-2.2 5-5 5v6c6.1 0 11-4.9 11-11 0-.4 0-.9-.1-1.3.1-.2.1-.3.1-.5V12.8zM19.2 11H8.8c-1 0-1.8.8-1.8 1.8v10.3c0 1 .8 1.8 1.8 1.8H15c0 2.8-2.2 5-5 5v6c6.1 0 11-4.9 11-11 0-.4 0-.9-.1-1.3.1-.2.1-.3.1-.5V12.8C21 11.8 20.2 11 19.2 11z"></path>
  </symbol>
  <symbol xmlns="http://www.w3.org/2000/svg" viewBox="0 0 30 30" id="trust">
    <path d="M17.273438 4C15.465437 4 14 5.4654375 14 7.2734375C14 10.41076 17.623679 13.402026 19.333984 14.746094 A 1 1 0 0 0 19.388672 14.791016 A 1 1 0 0 0 19.398438 14.798828 A 1 1 0 0 0 20 15 A 1 1 0 0 0 20.601562 14.798828 A 1 1 0 0 0 20.615234 14.787109C20.616705 14.785956 20.61962 14.784359 20.621094 14.783203 A 1 1 0 0 0 20.634766 14.771484C22.33406 13.437471 26 10.426559 26 7.2734375C26 5.4654375 24.534563 4 22.726562 4C20.999562 4 20 5.5 20 5.5C20 5.5 19.000438 4 17.273438 4 z M 8 14 A 3 3 0 0 0 6.8828125 14.216797L2 16L2 24L6.2207031 22.166016C6.7187031 21.950016 7.2821563 21.942438 7.7851562 22.148438L16.849609 25.851562C16.849609 25.851562 16.853494 25.851563 16.853516 25.851562 A 1.5 1.5 0 0 0 17.5 26 A 1.5 1.5 0 0 0 18.238281 25.802734C18.238413 25.802691 18.244057 25.802776 18.244141 25.802734L27.230469 20.810547L27.228516 20.808594 A 1.5 1.5 0 0 0 28 19.5 A 1.5 1.5 0 0 0 26.5 18 A 1.5 1.5 0 0 0 25.863281 18.144531L25.863281 18.142578L19 21L17.5 21 A 1.5 1.5 0 0 0 19 19.5 A 1.5 1.5 0 0 0 17.964844 18.074219L17.964844 18.072266L9.2714844 14.28125L9.2597656 14.28125 A 3 3 0 0 0 8 14 z" fill="#f85b0a"></path>
  </symbol>
  <symbol xmlns="http://www.w3.org/2000/svg" viewBox="0 0 24 24" id="airport">
    <path d="M22.71875 -0.03125C21.519531 0.03125 19.835938 1.070313 19.3125 1.59375L15.875 5L1.09375 5L0 6.40625L10 9.8125L13.28125 7.5625L6.90625 13.90625L2 14.8125L0 17L6 18L7 24L9.1875 22L10.09375 17.09375L16.4375 10.71875L14.1875 14L17.59375 24L19 22.90625L19 8.125L22.40625 4.6875C23.105469 3.988281 24.6875 1.3125 23.6875 0.3125C23.460938 0.0625 23.117188 -0.0507813 22.71875 -0.03125Z" fill="#f85b0a"></path>
  </symbol>
  <symbol xmlns="http://www.w3.org/2000/svg" viewBox="0 0 50 50" id="happy">
    <path d="M25,2C12.318,2,2,12.317,2,25s10.318,23,23,23s23-10.317,23-23S37.682,2,25,2z M33,18c1.657,0,3,1.343,3,3s-1.343,3-3,3 s-3-1.343-3-3S31.343,18,33,18z M17,18c1.657,0,3,1.343,3,3s-1.343,3-3,3s-3-1.343-3-3S15.343,18,17,18z M38.814,30.581 C38.597,30.884,33.418,38,25,38s-13.597-7.116-13.814-7.419c-0.32-0.449-0.216-1.072,0.232-1.394 c0.449-0.321,1.074-0.218,1.395,0.23C12.86,29.483,17.628,36,25,36s12.14-6.517,12.187-6.582c0.322-0.448,0.945-0.552,1.395-0.23 C39.03,29.509,39.134,30.132,38.814,30.581z" fill="#f85b0a"></path>
  </symbol>
  <symbol xmlns="http://www.w3.org/2000/svg" viewBox="0 0 30 30" id="goal">
    <path d="M15 2C13.183 2 11.454813 2.3786875 9.8828125 3.0546875L10.828125 4C11.024125 4.196 11.19475 4.4116719 11.34375 4.6386719C12.48975 4.2326719 13.717 4 15 4C21.065 4 26 8.935 26 15C26 21.065 21.065 26 15 26C8.935 26 4 21.065 4 15C4 13.717 4.2326719 12.490703 4.6386719 11.345703C4.4116719 11.196703 4.196 11.025125 4 10.828125L3.0546875 9.8828125C2.3786875 11.454813 2 13.183 2 15C2 22.168 7.832 28 15 28C22.168 28 28 22.168 28 15C28 7.832 22.168 2 15 2 z M 3.9902344 2.9902344 A 1.0001 1.0001 0 0 0 3.2929688 4.7070312L4.5859375 6L3.7148438 6C3.0818437 6 2.7648906 6.7648906 3.2128906 7.2128906L5.4140625 9.4140625C5.7890625 9.7890625 6.298125 10 6.828125 10L8.5859375 10L14.292969 15.707031 A 1.0001 1.0001 0 1 0 15.707031 14.292969L10 8.5859375L10 6.828125C10 6.298125 9.7890625 5.7890625 9.4140625 5.4140625L7.2128906 3.2128906C6.7648906 2.7648906 6 3.0818437 6 3.7148438L6 4.5859375L4.7070312 3.2929688 A 1.0001 1.0001 0 0 0 3.9902344 2.9902344 z M 15 6C13.936 6 12.918703 6.1941563 11.970703 6.5351562C11.978703 6.6331563 12 6.729125 12 6.828125L12 7.7578125L12.654297 8.4121094C13.389297 8.1501094 14.177 8 15 8C18.859 8 22 11.14 22 15C22 18.86 18.859 22 15 22C11.141 22 8 18.86 8 15C8 14.177 8.1491094 13.389297 8.4121094 12.654297L7.7578125 12L6.828125 12C6.729125 12 6.6331563 11.978703 6.5351562 11.970703C6.1951563 12.918703 6 13.936 6 15C6 19.962 10.037 24 15 24C19.963 24 24 19.962 24 15C24 10.038 19.963 6 15 6 z M 15 10C14.764 10 14.5395 10.038312 14.3125 10.070312L17.121094 12.878906L17.119141 12.880859C17.663141 13.423859 18 14.173 18 15C18 16.654 16.654 18 15 18C14.173 18 13.423859 17.663141 12.880859 17.119141L12.878906 17.121094L10.070312 14.3125C10.038312 14.5395 10 14.764 10 15C10 17.757 12.243 20 15 20C17.757 20 20 17.757 20 15C20 12.243 17.757 10 15 10 z" fill="#E68210"></path>
  </symbol>
  <symbol xmlns="http://www.w3.org/2000/svg" viewBox="0 0 30 30" id="rocket">
    <path d="M26.978516 3.0214844C26.978516 3.0214844 18 3 11 10C10.676811 10.323189 10.395406 10.675024 10.140625 11.039062C8.8995439 10.939831 6.9997651 10.972248 6.0273438 11.945312C3.7573437 14.215312 3 18 3 18L8 17.285156L8 19L11 22L12.714844 22L12 27C12 27 15.784688 26.242656 18.054688 23.972656C19.027752 23.000235 19.060169 21.100456 18.960938 19.859375C19.324976 19.604594 19.676811 19.323189 20 19C27 12 26.978516 3.0214844 26.978516 3.0214844 z M 19 9C20.105 9 21 9.895 21 11C21 12.105 20.105 13 19 13C17.895 13 17 12.105 17 11C17 9.895 17.895 9 19 9 z M 7.1992188 19.996094C6.8192188 20.096094 6.4591094 20.286984 6.1621094 20.583984C4.7961094 21.949984 5.0136719 24.984375 5.0136719 24.984375C5.0136719 24.984375 8.0281094 25.219938 9.4121094 23.835938C9.7091094 23.538937 9.9 23.176875 10 22.796875L9.5429688 22.339844C9.4979688 22.403844 9.4701094 22.478156 9.4121094 22.535156C8.4371094 23.510156 6.9746094 23.023438 6.9746094 23.023438C6.9746094 23.023438 6.4868906 21.560938 7.4628906 20.585938C7.5208906 20.527938 7.59225 20.501078 7.65625 20.455078L7.1992188 19.996094 z" fill="#E68210"></path>
  </symbol>
  <symbol xmlns="http://www.w3.org/2000/svg" viewBox="0 0 24 24" id="vision">
    <path d="M1 1L1 5L1 6L3 6L3 5L3 3L5 3L6 3L6 1L5 1L1 1 z M 18 1L18 3L19 3L21 3L21 5L21 6L23 6L23 5L23 1L19 1L18 1 z M 12 4C4 4 1 12 1 12C1 12 4 20 12 20C20 20 23 12 23 12C23 12 20 4 12 4 z M 12 7C14.761 7 17 9.239 17 12C17 14.761 14.761 17 12 17C9.239 17 7 14.761 7 12C7 9.239 9.239 7 12 7 z M 12 9C10.343 9 9 10.343 9 12C9 13.657 10.343 15 12 15C13.657 15 15 13.657 15 12C15 10.343 13.657 9 12 9 z M 1 18L1 19L1 23L5 23L6 23L6 21L5 21L3 21L3 19L3 18L1 18 z M 21 18L21 19L21 21L19 21L18 21L18 23L19 23L23 23L23 19L23 18L21 18 z" fill="#E68210"></path>
  </symbol>
 
</svg>