<svg width="0" height="0" class="hidden">
  <symbol xmlns="http://www.w3.org/2000/svg" viewBox="0 0 24 24" id="menu">
    <path d="M2 5L2 7L22 7L22 5L2 5 z M 2 11L2 13L22 13L22 11L2 11 z M 2 17L2 19L22 19L22 17L2 17 z" fill="#65E610"></path>
  </symbol>
  <symbol xmlns="http://www.w3.org/2000/svg" viewBox="0 0 48 48" id="quote-left">
    <path fill="#4caf50" d="M7 34.2c0 1 .8 1.8 1.8 1.8h10.3c1 0 1.8-.8 1.8-1.8V23.8c0-1-.8-1.8-1.8-1.8H13c0-2.8 2.2-5 5-5v-6c-6.1 0-11 4.9-11 11 0 .4 0 .9.1 1.3C7 23.5 7 23.7 7 23.8V34.2zM28.8 36h10.3c1 0 1.8-.8 1.8-1.8V23.8c0-1-.8-1.8-1.8-1.8H33c0-2.8 2.2-5 5-5v-6c-6.1 0-11 4.9-11 11 0 .4 0 .9.1 1.3C27 23.5 27 23.7 27 23.8v10.3C27 35.2 27.8 36 28.8 36z"></path>
  </symbol>
  <symbol xmlns="http://www.w3.org/2000/svg" viewBox="0 0 48 48" id="quote-right">
    <path fill="#4caf50" d="M41 12.8c0-1-.8-1.8-1.8-1.8H28.8c-1 0-1.8.8-1.8 1.8v10.3c0 1 .8 1.8 1.8 1.8H35c0 2.8-2.2 5-5 5v6c6.1 0 11-4.9 11-11 0-.4 0-.9-.1-1.3.1-.2.1-.3.1-.5V12.8zM19.2 11H8.8c-1 0-1.8.8-1.8 1.8v10.3c0 1 .8 1.8 1.8 1.8H15c0 2.8-2.2 5-5 5v6c6.1 0 11-4.9 11-11 0-.4 0-.9-.1-1.3.1-.2.1-.3.1-.5V12.8C21 11.8 20.2 11 19.2 11z"></path>
  </symbol>
</svg>