<svg width="0" height="0" class="hidden">
  <symbol xmlns="http://www.w3.org/2000/svg" viewBox="0 0 24 24" id="menu">
    <path d="M2 5L2 7L22 7L22 5L2 5 z M 2 11L2 13L22 13L22 11L2 11 z M 2 17L2 19L22 19L22 17L2 17 z" fill="#137FDB"></path>
  </symbol>
  <symbol xmlns="http://www.w3.org/2000/svg" viewBox="0 0 48 48" id="quote-left">
    <path fill="#e8590c" d="M7 34.2c0 1 .8 1.8 1.8 1.8h10.3c1 0 1.8-.8 1.8-1.8V23.8c0-1-.8-1.8-1.8-1.8H13c0-2.8 2.2-5 5-5v-6c-6.1 0-11 4.9-11 11 0 .4 0 .9.1 1.3C7 23.5 7 23.7 7 23.8V34.2zM28.8 36h10.3c1 0 1.8-.8 1.8-1.8V23.8c0-1-.8-1.8-1.8-1.8H33c0-2.8 2.2-5 5-5v-6c-6.1 0-11 4.9-11 11 0 .4 0 .9.1 1.3C27 23.5 27 23.7 27 23.8v10.3C27 35.2 27.8 36 28.8 36z"></path>
  </symbol>
  <symbol xmlns="http://www.w3.org/2000/svg" viewBox="0 0 48 48" id="quote-right">
    <path fill="#e8590c" d="M41 12.8c0-1-.8-1.8-1.8-1.8H28.8c-1 0-1.8.8-1.8 1.8v10.3c0 1 .8 1.8 1.8 1.8H35c0 2.8-2.2 5-5 5v6c6.1 0 11-4.9 11-11 0-.4 0-.9-.1-1.3.1-.2.1-.3.1-.5V12.8zM19.2 11H8.8c-1 0-1.8.8-1.8 1.8v10.3c0 1 .8 1.8 1.8 1.8H15c0 2.8-2.2 5-5 5v6c6.1 0 11-4.9 11-11 0-.4 0-.9-.1-1.3.1-.2.1-.3.1-.5V12.8C21 11.8 20.2 11 19.2 11z"></path>
  </symbol>
  <symbol xmlns="http://www.w3.org/2000/svg" viewBox="0 0 30 30" id="trust">
    <path d="M17.273438 4C15.465437 4 14 5.4654375 14 7.2734375C14 10.41076 17.623679 13.402026 19.333984 14.746094 A 1 1 0 0 0 19.388672 14.791016 A 1 1 0 0 0 19.398438 14.798828 A 1 1 0 0 0 20 15 A 1 1 0 0 0 20.601562 14.798828 A 1 1 0 0 0 20.615234 14.787109C20.616705 14.785956 20.61962 14.784359 20.621094 14.783203 A 1 1 0 0 0 20.634766 14.771484C22.33406 13.437471 26 10.426559 26 7.2734375C26 5.4654375 24.534563 4 22.726562 4C20.999562 4 20 5.5 20 5.5C20 5.5 19.000438 4 17.273438 4 z M 8 14 A 3 3 0 0 0 6.8828125 14.216797L2 16L2 24L6.2207031 22.166016C6.7187031 21.950016 7.2821563 21.942438 7.7851562 22.148438L16.849609 25.851562C16.849609 25.851562 16.853494 25.851563 16.853516 25.851562 A 1.5 1.5 0 0 0 17.5 26 A 1.5 1.5 0 0 0 18.238281 25.802734C18.238413 25.802691 18.244057 25.802776 18.244141 25.802734L27.230469 20.810547L27.228516 20.808594 A 1.5 1.5 0 0 0 28 19.5 A 1.5 1.5 0 0 0 26.5 18 A 1.5 1.5 0 0 0 25.863281 18.144531L25.863281 18.142578L19 21L17.5 21 A 1.5 1.5 0 0 0 19 19.5 A 1.5 1.5 0 0 0 17.964844 18.074219L17.964844 18.072266L9.2714844 14.28125L9.2597656 14.28125 A 3 3 0 0 0 8 14 z" fill="#e8590c"></path>
  </symbol>
  <symbol xmlns="http://www.w3.org/2000/svg" viewBox="0 0 24 24" id="airport">
    <path d="M22.71875 -0.03125C21.519531 0.03125 19.835938 1.070313 19.3125 1.59375L15.875 5L1.09375 5L0 6.40625L10 9.8125L13.28125 7.5625L6.90625 13.90625L2 14.8125L0 17L6 18L7 24L9.1875 22L10.09375 17.09375L16.4375 10.71875L14.1875 14L17.59375 24L19 22.90625L19 8.125L22.40625 4.6875C23.105469 3.988281 24.6875 1.3125 23.6875 0.3125C23.460938 0.0625 23.117188 -0.0507813 22.71875 -0.03125Z" fill="#e8590c"></path>
  </symbol>
  <symbol xmlns="http://www.w3.org/2000/svg" viewBox="0 0 50 50" id="happy">
    <path d="M25,2C12.318,2,2,12.317,2,25s10.318,23,23,23s23-10.317,23-23S37.682,2,25,2z M33,18c1.657,0,3,1.343,3,3s-1.343,3-3,3 s-3-1.343-3-3S31.343,18,33,18z M17,18c1.657,0,3,1.343,3,3s-1.343,3-3,3s-3-1.343-3-3S15.343,18,17,18z M38.814,30.581 C38.597,30.884,33.418,38,25,38s-13.597-7.116-13.814-7.419c-0.32-0.449-0.216-1.072,0.232-1.394 c0.449-0.321,1.074-0.218,1.395,0.23C12.86,29.483,17.628,36,25,36s12.14-6.517,12.187-6.582c0.322-0.448,0.945-0.552,1.395-0.23 C39.03,29.509,39.134,30.132,38.814,30.581z" fill="#e8590c"></path>
  </symbol>
  <symbol xmlns="http://www.w3.org/2000/svg" viewBox="0 0 30 30" id="goal">
    <path d="M15 2C13.183 2 11.454813 2.3786875 9.8828125 3.0546875L10.828125 4C11.024125 4.196 11.19475 4.4116719 11.34375 4.6386719C12.48975 4.2326719 13.717 4 15 4C21.065 4 26 8.935 26 15C26 21.065 21.065 26 15 26C8.935 26 4 21.065 4 15C4 13.717 4.2326719 12.490703 4.6386719 11.345703C4.4116719 11.196703 4.196 11.025125 4 10.828125L3.0546875 9.8828125C2.3786875 11.454813 2 13.183 2 15C2 22.168 7.832 28 15 28C22.168 28 28 22.168 28 15C28 7.832 22.168 2 15 2 z M 3.9902344 2.9902344 A 1.0001 1.0001 0 0 0 3.2929688 4.7070312L4.5859375 6L3.7148438 6C3.0818437 6 2.7648906 6.7648906 3.2128906 7.2128906L5.4140625 9.4140625C5.7890625 9.7890625 6.298125 10 6.828125 10L8.5859375 10L14.292969 15.707031 A 1.0001 1.0001 0 1 0 15.707031 14.292969L10 8.5859375L10 6.828125C10 6.298125 9.7890625 5.7890625 9.4140625 5.4140625L7.2128906 3.2128906C6.7648906 2.7648906 6 3.0818437 6 3.7148438L6 4.5859375L4.7070312 3.2929688 A 1.0001 1.0001 0 0 0 3.9902344 2.9902344 z M 15 6C13.936 6 12.918703 6.1941563 11.970703 6.5351562C11.978703 6.6331563 12 6.729125 12 6.828125L12 7.7578125L12.654297 8.4121094C13.389297 8.1501094 14.177 8 15 8C18.859 8 22 11.14 22 15C22 18.86 18.859 22 15 22C11.141 22 8 18.86 8 15C8 14.177 8.1491094 13.389297 8.4121094 12.654297L7.7578125 12L6.828125 12C6.729125 12 6.6331563 11.978703 6.5351562 11.970703C6.1951563 12.918703 6 13.936 6 15C6 19.962 10.037 24 15 24C19.963 24 24 19.962 24 15C24 10.038 19.963 6 15 6 z M 15 10C14.764 10 14.5395 10.038312 14.3125 10.070312L17.121094 12.878906L17.119141 12.880859C17.663141 13.423859 18 14.173 18 15C18 16.654 16.654 18 15 18C14.173 18 13.423859 17.663141 12.880859 17.119141L12.878906 17.121094L10.070312 14.3125C10.038312 14.5395 10 14.764 10 15C10 17.757 12.243 20 15 20C17.757 20 20 17.757 20 15C20 12.243 17.757 10 15 10 z" fill="#e8590c"></path>
  </symbol>
  <symbol xmlns="http://www.w3.org/2000/svg" viewBox="0 0 30 30" id="rocket">
    <path d="M26.978516 3.0214844C26.978516 3.0214844 18 3 11 10C10.676811 10.323189 10.395406 10.675024 10.140625 11.039062C8.8995439 10.939831 6.9997651 10.972248 6.0273438 11.945312C3.7573437 14.215312 3 18 3 18L8 17.285156L8 19L11 22L12.714844 22L12 27C12 27 15.784688 26.242656 18.054688 23.972656C19.027752 23.000235 19.060169 21.100456 18.960938 19.859375C19.324976 19.604594 19.676811 19.323189 20 19C27 12 26.978516 3.0214844 26.978516 3.0214844 z M 19 9C20.105 9 21 9.895 21 11C21 12.105 20.105 13 19 13C17.895 13 17 12.105 17 11C17 9.895 17.895 9 19 9 z M 7.1992188 19.996094C6.8192188 20.096094 6.4591094 20.286984 6.1621094 20.583984C4.7961094 21.949984 5.0136719 24.984375 5.0136719 24.984375C5.0136719 24.984375 8.0281094 25.219938 9.4121094 23.835938C9.7091094 23.538937 9.9 23.176875 10 22.796875L9.5429688 22.339844C9.4979688 22.403844 9.4701094 22.478156 9.4121094 22.535156C8.4371094 23.510156 6.9746094 23.023438 6.9746094 23.023438C6.9746094 23.023438 6.4868906 21.560938 7.4628906 20.585938C7.5208906 20.527938 7.59225 20.501078 7.65625 20.455078L7.1992188 19.996094 z" fill="#e8590c"></path>
  </symbol>
  <symbol xmlns="http://www.w3.org/2000/svg" viewBox="0 0 24 24" id="vision">
    <path d="M1 1L1 5L1 6L3 6L3 5L3 3L5 3L6 3L6 1L5 1L1 1 z M 18 1L18 3L19 3L21 3L21 5L21 6L23 6L23 5L23 1L19 1L18 1 z M 12 4C4 4 1 12 1 12C1 12 4 20 12 20C20 20 23 12 23 12C23 12 20 4 12 4 z M 12 7C14.761 7 17 9.239 17 12C17 14.761 14.761 17 12 17C9.239 17 7 14.761 7 12C7 9.239 9.239 7 12 7 z M 12 9C10.343 9 9 10.343 9 12C9 13.657 10.343 15 12 15C13.657 15 15 13.657 15 12C15 10.343 13.657 9 12 9 z M 1 18L1 19L1 23L5 23L6 23L6 21L5 21L3 21L3 19L3 18L1 18 z M 21 18L21 19L21 21L19 21L18 21L18 23L19 23L23 23L23 19L23 18L21 18 z" fill="#e8590c"></path>
  </symbol>
  <symbol xmlns="http://www.w3.org/2000/svg" viewBox="0 0 24 24" id="Done">
    <path d="M20.292969 5.2929688L9 16.585938L4.7070312 12.292969L3.2929688 13.707031L9 19.414062L21.707031 6.7070312L20.292969 5.2929688 z" fill="#e8590c"></path>
  </symbol>
  <symbol xmlns="http://www.w3.org/2000/svg" viewBox="0 0 30 30" id="address">
    <path d="M15 2C10.582 2 7 5.582 7 10C7 16 14 18 14 22C14 22.552 14.448 23 15 23C15.552 23 16 22.552 16 22C16 18 23 16 23 10C23 5.582 19.418 2 15 2 z M 15 8C16.105 8 17 8.895 17 10C17 11.105 16.105 12 15 12C13.895 12 13 11.105 13 10C13 8.895 13.895 8 15 8 z M 6 17C5.583 17 5.2095 17.259438 5.0625 17.648438L2.0625 25.648438C1.9475 25.956437 1.9917344 26.298359 2.1777344 26.568359C2.3657344 26.838359 2.672 27 3 27L27 27C27.328 27 27.635266 26.838359 27.822266 26.568359C28.009266 26.299359 28.0525 25.956437 27.9375 25.648438L24.9375 17.648438C24.7905 17.259438 24.417 17 24 17L22.023438 17C21.475437 17.612 20.909953 18.171266 20.376953 18.697266C20.271953 18.799266 20.171312 18.9 20.070312 19L23.306641 19L25.556641 25L4.4433594 25L6.6933594 19L9.9296875 19C9.8286875 18.9 9.729 18.799266 9.625 18.697266C9.091 18.171266 8.5245625 17.612 7.9765625 17L6 17 z" fill="#74c0fc"></path>
  </symbol>
  <symbol xmlns="http://www.w3.org/2000/svg" viewBox="0 0 30 30" id="Facebook">
    <path d="M15,3C8.373,3,3,8.373,3,15c0,6.016,4.432,10.984,10.206,11.852V18.18h-2.969v-3.154h2.969v-2.099c0-3.475,1.693-5,4.581-5 c1.383,0,2.115,0.103,2.461,0.149v2.753h-1.97c-1.226,0-1.654,1.163-1.654,2.473v1.724h3.593L19.73,18.18h-3.106v8.697 C22.481,26.083,27,21.075,27,15C27,8.373,21.627,3,15,3z" fill="#74c0fc"></path>
  </symbol>
  <symbol xmlns="http://www.w3.org/2000/svg" viewBox="0 0 30 30" id="google_plus">
    <path d="M15,3C8.373,3,3,8.373,3,15c0,6.627,5.373,12,12,12s12-5.373,12-12C27,8.373,21.627,3,15,3z M12,21c-3.314,0-6-2.686-6-6 c0-3.314,2.686-6,6-6c1.56,0,2.981,0.596,4.047,1.573l-1.434,1.404C13.912,11.369,13,11,12,11c-2.209,0-4,1.791-4,4 c0,2.209,1.791,4,4,4c1.981,0,3.622-1.442,3.94-3.333H12v-2h5.843l0.033,0.133C17.956,14.188,18,14.589,18,15 C18,18.314,15.314,21,12,21z M23,16v2h-2v-2h-2v-2h2v-2h2v2h2v2H23z" fill="#74c0fc"></path>
  </symbol>
  <symbol xmlns="http://www.w3.org/2000/svg" viewBox="0 0 30 30" id="Instagram">
    <path d="M9.9980469 3C6.1390469 3 3 6.1419531 3 10.001953L3 20.001953C3 23.860953 6.1419531 27 10.001953 27L20.001953 27C23.860953 27 27 23.858047 27 19.998047L27 9.9980469C27 6.1390469 23.858047 3 19.998047 3L9.9980469 3 z M 22 7C22.552 7 23 7.448 23 8C23 8.552 22.552 9 22 9C21.448 9 21 8.552 21 8C21 7.448 21.448 7 22 7 z M 15 9C18.309 9 21 11.691 21 15C21 18.309 18.309 21 15 21C11.691 21 9 18.309 9 15C9 11.691 11.691 9 15 9 z M 15 11 A 4 4 0 0 0 11 15 A 4 4 0 0 0 15 19 A 4 4 0 0 0 19 15 A 4 4 0 0 0 15 11 z" fill="#74c0fc"></path>
  </symbol>
  <symbol xmlns="http://www.w3.org/2000/svg" viewBox="0 0 30 30" id="phone">
    <path d="M21.225,17.889c-0.406-0.238-0.905-0.233-1.309,0.007l-2.046,1.219c-0.458,0.273-1.03,0.241-1.45-0.087 c-0.726-0.567-1.895-1.521-2.912-2.538c-1.017-1.017-1.971-2.186-2.538-2.912c-0.328-0.42-0.36-0.992-0.087-1.45l1.219-2.046 c0.241-0.404,0.243-0.907,0.005-1.313L9.105,3.641c-0.291-0.496-0.869-0.74-1.428-0.603C7.134,3.17,6.429,3.492,5.69,4.232 c-2.314,2.314-3.543,6.217,5.159,14.919s12.604,7.474,14.919,5.159c0.741-0.741,1.062-1.447,1.195-1.991 c0.135-0.558-0.105-1.132-0.6-1.422C25.127,20.174,22.461,18.613,21.225,17.889z" fill="#74c0fc"></path>
  </symbol>
  <symbol xmlns="http://www.w3.org/2000/svg" viewBox="0 0 24 24" id="email">
    <path d="M3 3C1.9069372 3 1 3.9069372 1 5L1 18L3 18L3 5L19 5L19 3L3 3 z M 7 7C6.389 7 5.8474688 7.2818437 5.4804688 7.7148438L14 13L22.451172 7.6328125C22.086172 7.2458125 21.573 7 21 7L7 7 z M 23 9.2832031L14 15L5 9.4160156L5 19C5 20.103 5.897 21 7 21L14 21L14 18C14 17.448 14.448 17 15 17L18 17L18 15C18 14.448 18.448 14 19 14L20.828125 14L23 16.171875L23 9.2832031 z M 20 16L20 19L16 19L16 21L20 21L20 24L24 20L20 16 z" fill="#74c0fc"></path>
  </symbol>
  <symbol xmlns="http://www.w3.org/2000/svg" viewBox="0 0 50 50" id="telegram_app">
    <path d="M46.137,6.552c-0.75-0.636-1.928-0.727-3.146-0.238l-0.002,0C41.708,6.828,6.728,21.832,5.304,22.445c-0.259,0.09-2.521,0.934-2.288,2.814c0.208,1.695,2.026,2.397,2.248,2.478l8.893,3.045c0.59,1.964,2.765,9.21,3.246,10.758c0.3,0.965,0.789,2.233,1.646,2.494c0.752,0.29,1.5,0.025,1.984-0.355l5.437-5.043l8.777,6.845l0.209,0.125c0.596,0.264,1.167,0.396,1.712,0.396c0.421,0,0.825-0.079,1.211-0.237c1.315-0.54,1.841-1.793,1.896-1.935l6.556-34.077C47.231,7.933,46.675,7.007,46.137,6.552z M22,32l-3,8l-3-10l23-17L22,32z" fill="#74c0fc"></path>
  </symbol>
  <symbol xmlns="http://www.w3.org/2000/svg" viewBox="0 0 30 30" id="twitter">
    <path d="M28,6.937c-0.957,0.425-1.985,0.711-3.064,0.84c1.102-0.66,1.947-1.705,2.345-2.951c-1.03,0.611-2.172,1.055-3.388,1.295 c-0.973-1.037-2.359-1.685-3.893-1.685c-2.946,0-5.334,2.389-5.334,5.334c0,0.418,0.048,0.826,0.138,1.215 c-4.433-0.222-8.363-2.346-10.995-5.574C3.351,6.199,3.088,7.115,3.088,8.094c0,1.85,0.941,3.483,2.372,4.439 c-0.874-0.028-1.697-0.268-2.416-0.667c0,0.023,0,0.044,0,0.067c0,2.585,1.838,4.741,4.279,5.23 c-0.447,0.122-0.919,0.187-1.406,0.187c-0.343,0-0.678-0.034-1.003-0.095c0.679,2.119,2.649,3.662,4.983,3.705 c-1.825,1.431-4.125,2.284-6.625,2.284c-0.43,0-0.855-0.025-1.273-0.075c2.361,1.513,5.164,2.396,8.177,2.396 c9.812,0,15.176-8.128,15.176-15.177c0-0.231-0.005-0.461-0.015-0.69C26.38,8.945,27.285,8.006,28,6.937z" fill="#74c0fc"></path>
  </symbol>
  <symbol xmlns="http://www.w3.org/2000/svg" viewBox="0 0 30 30" id="whatsapp">
    <path d="M15 3C8.373 3 3 8.373 3 15C3 17.251208 3.6323415 19.350068 4.7109375 21.150391L3.1074219 27L9.0820312 25.431641C10.829354 26.425062 12.84649 27 15 27C21.627 27 27 21.627 27 15C27 8.373 21.627 3 15 3 z M 10.892578 9.4023438C11.087578 9.4023438 11.287937 9.4011562 11.460938 9.4101562C11.674938 9.4151563 11.907859 9.4308281 12.130859 9.9238281C12.395859 10.509828 12.972875 11.979906 13.046875 12.128906C13.120875 12.277906 13.173313 12.453437 13.070312 12.648438C12.972312 12.848437 12.921344 12.969484 12.777344 13.146484C12.628344 13.318484 12.465078 13.532109 12.330078 13.662109C12.181078 13.811109 12.027219 13.974484 12.199219 14.271484C12.371219 14.568484 12.968563 15.542125 13.851562 16.328125C14.986562 17.342125 15.944188 17.653734 16.242188 17.802734C16.540187 17.951734 16.712766 17.928516 16.884766 17.728516C17.061766 17.533516 17.628125 16.864406 17.828125 16.566406C18.023125 16.268406 18.222188 16.319969 18.492188 16.417969C18.766188 16.515969 20.227391 17.235766 20.525391 17.384766C20.823391 17.533766 21.01875 17.607516 21.09375 17.728516C21.17075 17.853516 21.170828 18.448578 20.923828 19.142578C20.676828 19.835578 19.463922 20.505734 18.919922 20.552734C18.370922 20.603734 17.858562 20.7995 15.351562 19.8125C12.327563 18.6215 10.420484 15.524219 10.271484 15.324219C10.122484 15.129219 9.0605469 13.713906 9.0605469 12.253906C9.0605469 10.788906 9.8286563 10.071437 10.097656 9.7734375C10.371656 9.4754375 10.692578 9.4023438 10.892578 9.4023438 z" fill="#74c0fc"></path>
  </symbol>
  <symbol xmlns="http://www.w3.org/2000/svg" viewBox="0 0 26 26" id="fax">
    <path d="M10 1L10 7C8.898438 7 8 7.898438 8 9L8 19C8 19.738281 8.402344 20.371094 9 20.71875L9 21C9 22.191406 8.191406 23 7 23C5.808594 23 5 22.191406 5 21L6 21C6.601563 21 7 20.601563 7 20L7 5C7 4.398438 6.601563 4 6 4L2 4C1.398438 4 1 4.398438 1 5L1 20C1 20.601563 1.398438 21 2 21L3 21C3 23.210938 4.789063 25 7 25C9.210938 25 11 23.210938 11 21L24 21C25.101563 21 26 20.101563 26 19L26 9C26 7.898438 25.101563 7 24 7L24 1 Z M 12 3L22 3L22 9L12 9 Z M 13 12C13.601563 12 14 12.398438 14 13C14 13.601563 13.601563 14 13 14C12.398438 14 12 13.601563 12 13C12 12.398438 12.398438 12 13 12 Z M 17 12C17.601563 12 18 12.398438 18 13C18 13.601563 17.601563 14 17 14C16.398438 14 16 13.601563 16 13C16 12.398438 16.398438 12 17 12 Z M 21 12C21.601563 12 22 12.398438 22 13C22 13.601563 21.601563 14 21 14C20.398438 14 20 13.601563 20 13C20 12.398438 20.398438 12 21 12 Z M 13 16C13.601563 16 14 16.398438 14 17C14 17.601563 13.601563 18 13 18C12.398438 18 12 17.601563 12 17C12 16.398438 12.398438 16 13 16 Z M 17 16C17.601563 16 18 16.398438 18 17C18 17.601563 17.601563 18 17 18C16.398438 18 16 17.601563 16 17C16 16.398438 16.398438 16 17 16 Z M 21 16C21.601563 16 22 16.398438 22 17C22 17.601563 21.601563 18 21 18C20.398438 18 20 17.601563 20 17C20 16.398438 20.398438 16 21 16Z" fill="#74c0fc"></path>
  </symbol>
  <symbol xmlns="http://www.w3.org/2000/svg" viewBox="0 0 30 30" id="Close">
    <path d="M7 4C6.744125 4 6.4879687 4.0974687 6.2929688 4.2929688L4.2929688 6.2929688C3.9019687 6.6839688 3.9019687 7.3170313 4.2929688 7.7070312L11.585938 15L4.2929688 22.292969C3.9019687 22.683969 3.9019687 23.317031 4.2929688 23.707031L6.2929688 25.707031C6.6839688 26.098031 7.3170313 26.098031 7.7070312 25.707031L15 18.414062L22.292969 25.707031C22.682969 26.098031 23.317031 26.098031 23.707031 25.707031L25.707031 23.707031C26.098031 23.316031 26.098031 22.682969 25.707031 22.292969L18.414062 15L25.707031 7.7070312C26.098031 7.3170312 26.098031 6.6829688 25.707031 6.2929688L23.707031 4.2929688C23.316031 3.9019687 22.682969 3.9019687 22.292969 4.2929688L15 11.585938L7.7070312 4.2929688C7.5115312 4.0974687 7.255875 4 7 4 z" fill="#1c7ed6"></path>
  </symbol>
  
</svg>