<svg xmlns="http://www.w3.org/2000/svg" width="24" height="24" viewBox="0 0 24 24">
  <path d="M1 1L1 5L1 6L3 6L3 5L3 3L5 3L6 3L6 1L5 1L1 1 z M 18 1L18 3L19 3L21 3L21 5L21 6L23 6L23 5L23 1L19 1L18 1 z M 12 4C4 4 1 12 1 12C1 12 4 20 12 20C20 20 23 12 23 12C23 12 20 4 12 4 z M 12 7C14.761 7 17 9.239 17 12C17 14.761 14.761 17 12 17C9.239 17 7 14.761 7 12C7 9.239 9.239 7 12 7 z M 12 9C10.343 9 9 10.343 9 12C9 13.657 10.343 15 12 15C13.657 15 15 13.657 15 12C15 10.343 13.657 9 12 9 z M 1 18L1 19L1 23L5 23L6 23L6 21L5 21L3 21L3 19L3 18L1 18 z M 21 18L21 19L21 21L19 21L18 21L18 23L19 23L23 23L23 19L23 18L21 18 z" fill="#E68210" />
</svg>